<!-- Generated by IcoMoon.io -->
<svg version="1.1" xmlns="http://www.w3.org/2000/svg" width="32" height="32" viewBox="0 0 32 32">
<title>css</title>
<path fill="#c4c4c4" d="M5.895 7.28l1.914 20.739 8.296 2.234 8.296-2.234 1.915-20.739h-20.42z"></path>
<path fill="#c4c4c4" d="M16.105 8.96v19.511l0.019 0.005 6.713-1.808 1.55-17.709h-8.282z"></path>
<path fill="#e8e8e7" d="M16.082 23.166l-0.004 0.001-2.772-0.706-0.168-2.035h-2.576l0.336 3.928 5.207 1.554v-2.749l-0.023 0.007z"></path>
<path fill="#fbfbfa" d="M16.105 16.59v2.495h0.007l3.078 0.003-0.198 3.262-2.888 0.814v2.742l0.009 0.003 5.221-1.525 0.677-7.794h-5.908z"></path>
<path fill="#e5e4e2" d="M10.198 16.59l0.196 2.497 5.711 0v-2.497h-5.907z"></path>
<path fill="#eee" d="M10.198 16.59h5.893l0.015-0.006v-2.491l-5.907 2.498z"></path>
<path fill="#fff" d="M16.451 13.971l-0.345 0.145v2.474l6.091-2.618h-5.746z"></path>
<path fill="#e7e7e6" d="M9.65 11.474l0.309 2.497h6.146v-2.497h-6.455z"></path>
<path fill="#f8f8f7" d="M16.105 13.971l6.333-2.497h-6.333v2.497zM16.107 13.971h6.079l0.252-2.497-6.331 2.497z"></path>
<path fill="#c4c4c4" d="M10.046 5.466h3.152v-1.233h-1.801v-1.234h1.801v-1.351h-3.152v3.818zM14.545 2.999c0.422 0.422 0.642 0.623 1.251 1.233-0.356 0-1.251 0.001-1.251 0.001v1.232h3.152v-1.233l-1.259-1.234h1.259v-1.351h-3.152c0 0 0 0.678 0 1.351zM22.164 1.648h-3.152c0 0 0 0.678 0 1.351 0.422 0.422 0.642 0.623 1.252 1.233-0.356 0-1.252 0.001-1.252 0.001v1.232h3.152v-1.233l-1.259-1.234h1.259v-1.351z"></path>
</svg>
