<!-- Generated by IcoMoon.io -->
<svg version="1.1" xmlns="http://www.w3.org/2000/svg" width="33" height="32" viewBox="0 0 33 32">
<title>dribble</title>
<path fill="#004756" d="M23.858 27.348c-0.138-0.819-0.864-4.814-2.648-9.715 4.391-0.703 8.196 0.503 8.478 0.595-0.296 1.838-0.966 3.596-1.969 5.165s-2.317 2.915-3.861 3.955zM16.257 29.672c-3.165 0.005-6.231-1.099-8.667-3.118 0.181 0.145 0.306 0.237 0.306 0.237s2.607-5.686 10.676-8.497c0.028-0.012 0.060-0.018 0.090-0.028 1.915 4.973 2.704 9.138 2.906 10.327-1.679 0.713-3.485 1.081-5.31 1.080h-0.002zM2.653 16.068c0-0.145 0.007-0.287 0.011-0.43 0.241 0.005 6.963 0.159 13.966-1.938 0.389 0.761 0.761 1.54 1.104 2.313-0.18 0.049-0.359 0.103-0.536 0.163-7.341 2.372-11.065 8.975-11.065 8.975l0.005 0.007c-2.248-2.493-3.491-5.733-3.487-9.090h0.002zM10.451 3.767c1.833 2.513 3.52 5.13 5.053 7.837-6.531 1.734-12.202 1.667-12.559 1.66 0.433-2.055 1.337-3.982 2.639-5.629s2.968-2.971 4.867-3.868zM12.998 2.859l-0.002 0.005-0.043 0.007 0.044-0.011v-0.002zM25.241 5.861c-0.034 0.051-1.97 3-7.106 4.924-1.511-2.758-3.209-5.409-5.081-7.936 2.124-0.519 4.343-0.516 6.466 0.008s4.087 1.555 5.725 3.004h-0.004zM29.857 15.931c-0.195-0.043-4.8-1.034-9.474-0.446l-0.294-0.699c-0.284-0.666-0.585-1.325-0.904-1.975 5.372-2.195 7.552-5.345 7.579-5.382 1.975 2.396 3.067 5.397 3.094 8.502zM31.864 12.862c-0.211-1.026-0.523-2.029-0.931-2.995-1.203-2.845-3.208-5.279-5.77-7.005-0.852-0.577-1.757-1.069-2.704-1.471-1.963-0.828-4.071-1.254-6.202-1.254s-4.239 0.426-6.202 1.254c-2.844 1.205-5.277 3.209-7.005 5.77-1.779 2.629-2.727 5.732-2.722 8.906-0.005 2.13 0.421 4.239 1.253 6.2 0.4 0.949 0.892 1.857 1.469 2.708 1.728 2.56 4.161 4.563 7.005 5.768 0.964 0.408 1.967 0.719 2.993 0.927 3.158 0.654 6.439 0.33 9.409-0.927 0.948-0.401 1.854-0.893 2.706-1.469 0.846-0.572 1.635-1.221 2.358-1.942 1.867-1.863 3.241-4.161 3.999-6.687s0.876-5.201 0.343-7.783h0.002z"></path>
</svg>
