<!-- Generated by IcoMoon.io -->
<svg version="1.1" xmlns="http://www.w3.org/2000/svg" width="32" height="32" viewBox="0 0 32 32">
<title>figma</title>
<path fill="#c4c4c4" d="M15.901 15.99c0-1.406 0.558-2.754 1.552-3.748s2.342-1.552 3.748-1.552c1.406 0 2.754 0.558 3.748 1.552s1.553 2.342 1.553 3.748-0.558 2.754-1.553 3.748c-0.994 0.994-2.342 1.552-3.748 1.552s-2.754-0.558-3.748-1.552c-0.994-0.994-1.552-2.342-1.552-3.748zM5.3 26.591c0-1.406 0.558-2.754 1.552-3.748s2.342-1.552 3.748-1.552h5.3v5.3c0 1.406-0.558 2.754-1.552 3.748s-2.342 1.552-3.748 1.552-2.754-0.558-3.748-1.552c-0.994-0.994-1.552-2.342-1.552-3.748zM15.901 0.090v10.601h5.3c1.406 0 2.754-0.558 3.748-1.552s1.553-2.342 1.553-3.748-0.558-2.754-1.553-3.748c-0.994-0.994-2.342-1.552-3.748-1.552h-5.3zM5.3 5.39c0 1.406 0.558 2.754 1.552 3.748s2.342 1.552 3.748 1.552h5.3v-10.601h-5.3c-1.406 0-2.754 0.558-3.748 1.552s-1.552 2.342-1.552 3.748zM5.3 15.99c0 1.406 0.558 2.754 1.552 3.748s2.342 1.552 3.748 1.552h5.3v-10.601h-5.3c-1.406 0-2.754 0.558-3.748 1.552s-1.552 2.342-1.552 3.748z"></path>
</svg>
