<!-- Generated by IcoMoon.io -->
<svg version="1.1" xmlns="http://www.w3.org/2000/svg" width="32" height="32" viewBox="0 0 32 32">
<title>git</title>
<path fill="#ef473b" d="M31.415 14.576c-0.001 0-0.001-0.001-0.001-0.001l-13.999-14.008c-0.755-0.757-2.077-0.756-2.829-0.001l-14.001 14.009c-0.376 0.379-0.585 0.881-0.585 1.414s0.208 1.037 0.586 1.415l13.999 14.008c0.378 0.378 0.88 0.587 1.415 0.587s1.038-0.209 1.414-0.586l14-14.008c0.378-0.378 0.586-0.881 0.586-1.415s-0.208-1.036-0.585-1.414z"></path>
<path fill="#010101" opacity="0.1" d="M31.575 16.92l-14.146 14.154c-0.38 0.382-0.888 0.592-1.429 0.592s-1.049-0.211-1.43-0.593l-14.145-14.154c-0.165-0.165-0.292-0.358-0.39-0.563 0.073 0.395 0.26 0.759 0.55 1.048l13.999 14.008c0.378 0.378 0.88 0.587 1.415 0.587s1.038-0.209 1.414-0.586l14-14.008c0.29-0.29 0.477-0.654 0.55-1.048-0.098 0.205-0.224 0.398-0.39 0.563z"></path>
<path fill="#fff" d="M22.667 13.333c-0.5 0-0.963 0.147-1.363 0.387l-3.024-3.024c0.24-0.4 0.387-0.863 0.387-1.363 0-1.471-1.197-2.667-2.667-2.667-0.493 0-0.95 0.144-1.346 0.378l-3.272-3.272-0.942 0.943 3.272 3.272c-0.234 0.397-0.378 0.853-0.378 1.346 0 1.239 0.853 2.274 2 2.572v8.189c-1.147 0.298-2 1.333-2 2.572 0 1.471 1.197 2.667 2.667 2.667s2.667-1.196 2.667-2.667c0-1.239-0.853-2.274-2-2.572v-8.189c0.236-0.061 0.457-0.154 0.663-0.274l3.040 3.040c-0.228 0.393-0.369 0.843-0.369 1.329 0 1.471 1.197 2.667 2.667 2.667s2.667-1.196 2.667-2.667-1.197-2.667-2.667-2.667z"></path>
<path fill="#fff" opacity="0.2" d="M0.585 14.909l14.001-14.009c0.753-0.756 2.074-0.756 2.829 0.001l13.999 14.008c0 0 0 0.001 0.001 0.001 0.336 0.338 0.529 0.778 0.568 1.248 0.005-0.056 0.016-0.11 0.016-0.167 0-0.534-0.208-1.036-0.585-1.414-0.001 0-0.001-0.001-0.001-0.001l-13.999-14.008c-0.755-0.757-2.077-0.756-2.829-0.001l-14.001 14.009c-0.376 0.379-0.585 0.881-0.585 1.414 0 0.057 0.012 0.111 0.016 0.167 0.039-0.47 0.232-0.909 0.568-1.248z"></path>
<path fill="#000" d="M24.732 14.334c0.37 0.458 0.602 1.033 0.602 1.666 0 1.471-1.197 2.667-2.667 2.667s-2.667-1.196-2.667-2.667c0-0.486 0.14-0.936 0.369-1.329l-3.040-3.040c-0.206 0.12-0.427 0.213-0.663 0.274v8.189c1.147 0.298 2 1.333 2 2.572 0 1.471-1.197 2.667-2.667 2.667-0.682 0-1.298-0.265-1.771-0.688l4.976 4.976 10.404-10.41-4.877-4.877zM18.28 10.696l3.024 3.024c0.4-0.24 0.863-0.387 1.363-0.387 0.633 0 1.208 0.231 1.666 0.602l-6.24-6.234c0.354 0.453 0.574 1.015 0.574 1.633 0 0.5-0.147 0.963-0.387 1.363z"></path>
<path fill="#000" d="M31.415 14.576c-0.001 0-0.001-0.001-0.001-0.001l-13.999-14.008c-0.755-0.757-2.077-0.756-2.829-0.001l-14.001 14.009c-0.376 0.379-0.585 0.881-0.585 1.414s0.208 1.037 0.586 1.415l13.999 14.008c0.378 0.378 0.88 0.587 1.415 0.587s1.038-0.209 1.414-0.586l14-14.008c0.378-0.378 0.586-0.881 0.586-1.415s-0.208-1.036-0.585-1.414z"></path>
</svg>
