<!-- Generated by IcoMoon.io -->
<svg version="1.1" xmlns="http://www.w3.org/2000/svg" width="23" height="32" viewBox="0 0 23 32">
<title>html</title>
<path fill="#c4c4c4" d="M3.622 2.985h1.311v1.436h1.434v-4.289h-1.434v1.417h-1.311v-1.417h-1.433v4.289h1.433v-1.436z"></path>
<path fill="#c4c4c4" d="M8.251 4.421h1.434v-2.866h1.261v-1.423h-3.956v1.423h1.261v2.866z"></path>
<path fill="#c4c4c4" d="M12.977 2.296l0.988 1.524h0.024l0.986-1.524v2.125h1.428v-4.289h-1.495l-0.919 1.509-0.919-1.509h-1.494v4.289h1.402v-2.125z"></path>
<path fill="#c4c4c4" d="M20.565 3.004h-2.016v-2.872h-1.433v4.289h3.45v-1.417z"></path>
<path fill="#c4c4c4" d="M0.122 6.303l2.050 22.996 9.204 2.555 9.211-2.553 2.054-22.997h-22.519zM18.193 13.823h-10.793l0.258 2.888h10.279l-0.773 8.661-5.786 1.603-5.778-1.603-0.403-4.53h2.831l0.21 2.35 3.145 0.848 3.145-0.849 0.327-3.658h-9.775l-0.762-8.529h14.127l-0.252 2.819z"></path>
</svg>
