<!-- Generated by IcoMoon.io -->
<svg version="1.1" xmlns="http://www.w3.org/2000/svg" width="42" height="32" viewBox="0 0 42 32">
<title>javascript</title>
<path fill="#c4c4c4" d="M9.056 0.657h6.914v19.378c0 8.734-4.185 11.782-10.872 11.782-1.638 0-3.73-0.273-5.095-0.728l0.773-5.595c0.955 0.318 2.183 0.546 3.548 0.546 2.911 0 4.731-1.319 4.731-6.050v-19.333z"></path>
<path fill="#c4c4c4" d="M21.973 24.221c1.82 0.955 4.731 1.911 7.688 1.911 3.184 0 4.868-1.319 4.868-3.366 0-1.865-1.456-3.002-5.14-4.276-5.095-1.82-8.461-4.64-8.461-9.143 0-5.231 4.412-9.189 11.6-9.189 3.503 0 6.005 0.683 7.824 1.547l-1.547 5.55c-1.183-0.591-3.412-1.456-6.368-1.456-3.002 0-4.458 1.41-4.458 2.957 0 1.956 1.683 2.82 5.686 4.367 5.413 2.002 7.915 4.822 7.915 9.189 0 5.14-3.912 9.507-12.327 9.507-3.503 0-6.96-0.956-8.688-1.911l1.41-5.686z"></path>
</svg>
