<!-- Generated by IcoMoon.io -->
<svg version="1.1" xmlns="http://www.w3.org/2000/svg" width="32" height="32" viewBox="0 0 32 32">
<title>linkedInBox</title>
<path fill="#004756" d="M17.237 14.32v-0.049c-0.010 0.016-0.021 0.033-0.032 0.049h0.032z"></path>
<path fill="#004756" d="M29.369 0.14h-26.623c-1.274 0-2.308 1.009-2.308 2.252v26.935c0 1.243 1.033 2.251 2.308 2.251h26.623c1.276 0 2.31-1.009 2.31-2.251v-26.935c0-1.244-1.034-2.252-2.31-2.252zM9.907 26.458h-4.719v-14.196h4.719v14.196zM7.548 10.323h-0.032c-1.583 0-2.607-1.090-2.607-2.452 0-1.393 1.056-2.453 2.669-2.453s2.607 1.060 2.639 2.453c0 1.362-1.025 2.452-2.67 2.452zM26.922 26.458h-4.719v-7.596c0-1.908-0.683-3.21-2.39-3.21-1.303 0-2.080 0.878-2.422 1.726-0.125 0.303-0.155 0.726-0.155 1.151v7.928h-4.719c0 0 0.062-12.865 0-14.196h4.719v2.009c0.627-0.967 1.748-2.344 4.253-2.344 3.104 0 5.432 2.030 5.432 6.39v8.141h-0.001z"></path>
</svg>
