<!-- Generated by IcoMoon.io -->
<svg version="1.1" xmlns="http://www.w3.org/2000/svg" width="32" height="32" viewBox="0 0 32 32">
<title>linkedIn</title>
<path fill="#333" d="M16 0c-8.837 0-16 7.163-16 16 0 8.836 7.163 16 16 16s16-7.164 16-16c0-8.837-7.163-16-16-16z"></path>
<path fill="#fff" d="M24.294 22.942v-6.137c0-3.288-1.755-4.818-4.096-4.818-1.889 0-2.735 1.039-3.206 1.768v-1.517h-3.558c0.047 1.005 0 10.704 0 10.704h3.558v-5.978c0-0.319 0.023-0.639 0.117-0.867 0.257-0.639 0.842-1.301 1.825-1.301 1.288 0 1.803 0.981 1.803 2.42v5.727l3.557-0.001zM9.685 10.777c1.24 0 2.013-0.823 2.013-1.85-0.023-1.050-0.773-1.849-1.99-1.849s-2.012 0.799-2.012 1.849c0 1.028 0.772 1.85 1.967 1.85h0.022zM11.464 22.942v-10.704h-3.557v10.704h3.557z"></path>
</svg>
