<!-- Generated by IcoMoon.io -->
<svg version="1.1" xmlns="http://www.w3.org/2000/svg" width="32" height="32" viewBox="0 0 32 32">
<title>nodejs</title>
<path d="M15.994 30.375c-0.382 0-0.77-0.103-1.107-0.297l-3.52-2.082c-0.525-0.297-0.268-0.399-0.097-0.456 0.702-0.245 0.844-0.297 1.592-0.724 0.080-0.046 0.183-0.029 0.262 0.023l2.704 1.603c0.097 0.057 0.234 0.057 0.325 0l10.537-6.081c0.097-0.057 0.16-0.171 0.16-0.285v-12.163c0-0.12-0.063-0.228-0.165-0.291l-10.531-6.076c-0.097-0.057-0.228-0.057-0.325 0l-10.525 6.081c-0.103 0.057-0.165 0.171-0.165 0.291v12.157c0 0.114 0.063 0.228 0.165 0.28l2.887 1.666c1.569 0.782 2.527-0.137 2.527-1.067v-12.003c0-0.171 0.137-0.302 0.308-0.302h1.335c0.165 0 0.308 0.131 0.308 0.302v12.009c0 2.088-1.141 3.286-3.12 3.286-0.611 0-1.090 0-2.425-0.662l-2.761-1.592c-0.685-0.394-1.107-1.13-1.107-1.922v-12.157c0-0.787 0.422-1.529 1.107-1.923l10.525-6.082c0.667-0.377 1.552-0.377 2.213 0l10.537 6.087c0.685 0.394 1.107 1.13 1.107 1.923v12.157c0 0.787-0.422 1.523-1.107 1.923l-10.537 6.081c-0.337 0.194-0.719 0.297-1.107 0.297zM24.5 18.389c0-2.276-1.54-2.881-4.775-3.309-3.275-0.434-3.606-0.656-3.606-1.421 0-0.633 0.28-1.478 2.704-1.478 2.162 0 2.961 0.468 3.292 1.928 0.029 0.137 0.154 0.24 0.297 0.24h1.369c0.085 0 0.165-0.034 0.222-0.097s0.086-0.148 0.080-0.234c-0.211-2.516-1.883-3.685-5.26-3.685-3.006 0-4.798 1.267-4.798 3.394 0 2.305 1.786 2.944 4.666 3.229 3.452 0.337 3.72 0.844 3.72 1.523 0 1.175-0.947 1.677-3.166 1.677-2.79 0-3.4-0.702-3.605-2.088-0.023-0.148-0.148-0.257-0.302-0.257h-1.364c-0.171 0-0.302 0.137-0.302 0.302 0 1.774 0.964 3.891 5.579 3.891 3.332-0.006 5.248-1.324 5.248-3.617v0z"></path>
</svg>
