<!-- Generated by IcoMoon.io -->
<svg version="1.1" xmlns="http://www.w3.org/2000/svg" width="43" height="32" viewBox="0 0 43 32">
<title>sass</title>
<path fill="#c4c4c4" d="M36.536 18.313c-1.483 0.007-2.768 0.364-3.841 0.894-0.391-0.788-0.795-1.477-0.861-1.994-0.079-0.603-0.166-0.96-0.073-1.676s0.51-1.729 0.503-1.801c-0.007-0.073-0.093-0.437-0.947-0.444s-1.59 0.166-1.675 0.391c-0.086 0.225-0.252 0.735-0.351 1.265-0.152 0.775-1.709 3.543-2.59 4.987-0.291-0.563-0.536-1.060-0.589-1.457-0.079-0.603-0.165-0.96-0.073-1.676s0.51-1.729 0.503-1.801c-0.007-0.073-0.093-0.437-0.947-0.444s-1.589 0.166-1.676 0.391c-0.086 0.225-0.179 0.755-0.351 1.265s-2.245 5.119-2.788 6.318c-0.278 0.609-0.517 1.099-0.689 1.431-0.026 0.053-0.046 0.086-0.060 0.113 0.020-0.033 0.033-0.066 0.033-0.053-0.146 0.285-0.232 0.444-0.232 0.444v0.007c-0.113 0.212-0.238 0.404-0.298 0.404-0.040 0-0.126-0.556 0.020-1.318 0.311-1.603 1.046-4.093 1.040-4.179-0.007-0.046 0.139-0.477-0.484-0.709-0.603-0.219-0.821 0.146-0.874 0.146s-0.093 0.133-0.093 0.133c0 0 0.669-2.808-1.285-2.808-1.219 0-2.914 1.338-3.748 2.55-0.523 0.285-1.656 0.901-2.848 1.556-0.457 0.252-0.927 0.51-1.371 0.755-0.033-0.033-0.060-0.066-0.093-0.099-2.371-2.53-6.749-4.318-6.563-7.716 0.066-1.238 0.497-4.49 8.418-8.437 6.49-3.232 11.683-2.344 12.577-0.371 1.285 2.815-2.775 8.053-9.517 8.808-2.57 0.285-3.921-0.709-4.258-1.079-0.351-0.391-0.404-0.411-0.537-0.338-0.219 0.119-0.079 0.464 0 0.669 0.199 0.523 1.026 1.45 2.437 1.914 1.238 0.404 4.252 0.629 7.894-0.781 4.093-1.576 7.279-5.967 6.345-9.643-0.954-3.735-7.146-4.96-13.007-2.881-3.49 1.238-7.265 3.186-9.98 5.722-3.225 3.020-3.742 5.649-3.53 6.749 0.755 3.901 6.133 6.444 8.285 8.325-0.106 0.060-0.205 0.113-0.298 0.166-1.079 0.536-5.179 2.682-6.206 4.947-1.159 2.57 0.192 4.41 1.079 4.662 2.768 0.768 5.603-0.616 7.126-2.888s1.338-5.239 0.636-6.59c-0.007-0.020-0.020-0.033-0.026-0.053 0.278-0.165 0.563-0.331 0.848-0.497 0.55-0.325 1.086-0.623 1.556-0.881-0.265 0.715-0.457 1.576-0.556 2.821-0.119 1.457 0.484 3.345 1.265 4.086 0.344 0.325 0.761 0.331 1.020 0.331 0.914 0 1.324-0.755 1.781-1.656 0.563-1.099 1.060-2.378 1.060-2.378s-0.622 3.457 1.079 3.457c0.622 0 1.245-0.801 1.523-1.212v0.007c0 0 0.013-0.026 0.046-0.079 0.066-0.099 0.099-0.159 0.099-0.159v-0.020c0.252-0.43 0.801-1.417 1.629-3.046 1.073-2.106 2.099-4.735 2.099-4.735s0.093 0.643 0.411 1.709c0.185 0.629 0.576 1.318 0.887 1.987-0.251 0.344-0.404 0.543-0.404 0.543s0 0.007 0.006 0.013c-0.199 0.265-0.424 0.55-0.655 0.828-0.848 1.007-1.854 2.159-1.987 2.49-0.159 0.391-0.119 0.682 0.185 0.907 0.225 0.172 0.622 0.199 1.040 0.166 0.762-0.053 1.298-0.239 1.556-0.358 0.41-0.145 0.887-0.377 1.338-0.702 0.828-0.609 1.331-1.483 1.285-2.636-0.026-0.636-0.232-1.272-0.483-1.868 0.073-0.106 0.152-0.219 0.225-0.331 1.311-1.914 2.325-4.013 2.325-4.013s0.093 0.642 0.411 1.709c0.159 0.537 0.47 1.126 0.755 1.702-1.232 1-1.994 2.159-2.258 2.921-0.49 1.411-0.106 2.046 0.616 2.192 0.324 0.066 0.788-0.086 1.132-0.232 0.43-0.146 0.947-0.378 1.43-0.735 0.828-0.609 1.629-1.464 1.576-2.623-0.020-0.523-0.166-1.046-0.358-1.55 1.040-0.437 2.391-0.676 4.113-0.477 3.689 0.43 4.411 2.735 4.271 3.695-0.139 0.967-0.914 1.497-1.172 1.656s-0.338 0.219-0.318 0.338c0.033 0.172 0.152 0.166 0.371 0.126 0.305-0.053 1.934-0.781 2.006-2.563 0.106-2.252-2.059-4.729-5.894-4.709zM8.104 27.896c-1.218 1.331-2.927 1.834-3.662 1.411-0.788-0.457-0.477-2.417 1.026-3.835 0.914-0.861 2.093-1.656 2.874-2.146 0.179-0.106 0.437-0.265 0.755-0.457 0.053-0.033 0.079-0.046 0.079-0.046 0.060-0.040 0.126-0.073 0.192-0.113 0.55 2.013 0.020 3.788-1.265 5.186zM17.005 21.843c-0.424 1.040-1.318 3.689-1.861 3.55-0.464-0.119-0.748-2.139-0.093-4.126 0.331-1 1.033-2.192 1.45-2.656 0.669-0.748 1.404-0.987 1.576-0.689 0.232 0.391-0.808 3.272-1.073 3.921zM24.356 25.353c-0.179 0.093-0.344 0.152-0.424 0.106-0.060-0.033 0.073-0.159 0.073-0.159s0.92-0.987 1.285-1.437c0.212-0.265 0.457-0.576 0.722-0.92 0 0.033 0.006 0.066 0.006 0.106-0.006 1.186-1.145 1.987-1.662 2.305zM30.026 24.062c-0.132-0.093-0.113-0.404 0.331-1.371 0.172-0.378 0.57-1.013 1.258-1.623 0.079 0.252 0.126 0.49 0.126 0.715-0.007 1.49-1.073 2.047-1.715 2.278z"></path>
</svg>
