<!-- Generated by IcoMoon.io -->
<svg version="1.1" xmlns="http://www.w3.org/2000/svg" width="32" height="32" viewBox="0 0 32 32">
<title>shopify</title>
<path fill="#81bf37" d="M17.613 4.892c0-0.109 0.001-0.216 0.001-0.333 0-1.020-0.141-1.842-0.367-2.493 0.909 0.114 1.514 1.153 1.902 2.348-0.456 0.142-0.974 0.303-1.536 0.478zM15.607 15.062c0 0-1.063-0.57-2.365-0.57-1.911 0-2.007 1.205-2.007 1.508 0 1.657 4.297 2.292 4.297 6.172 0 3.052-1.927 5.018-4.524 5.018-3.117 0-4.712-1.95-4.712-1.95l0.835-2.771c0 0 1.639 1.414 3.022 1.414 0.902 0 1.271-0.715 1.271-1.237 0-2.161-3.526-2.258-3.526-5.809 0-2.988 2.135-5.88 6.443-5.88 1.66 0 2.481 0.478 2.481 0.478l-1.214 3.627zM14.899 1.107c0.178 0 0.356 0.061 0.527 0.179-1.316 0.622-2.726 2.19-3.322 5.32-0.871 0.271-1.722 0.536-2.508 0.781 0.697-2.388 2.354-6.28 5.303-6.28zM16.537 5.048c0 0.063-0.001 0.121-0.001 0.179-1 0.311-2.086 0.649-3.174 0.988 0.611-2.37 1.756-3.515 2.759-3.947 0.252 0.636 0.417 1.549 0.417 2.78zM21.265 3.774c-0.065 0.009-0.121 0.021-0.16 0.033-0.021 0.006-0.371 0.115-0.951 0.295-0.568-1.642-1.57-3.151-3.332-3.151-0.049 0-0.099 0.002-0.149 0.005-0.502-0.666-1.123-0.956-1.659-0.956-4.107 0-6.069 5.16-6.684 7.781-1.596 0.497-2.729 0.85-2.874 0.896-0.891 0.281-0.92 0.309-1.036 1.152-0.088 0.639-2.419 18.752-2.419 18.752l18.179 3.415 1.085-28.221zM22.565 4.663c0.524 0.523 1.119 1.116 1.119 1.116s2.447 0.182 2.562 0.192c0.116 0.010 0.257 0.099 0.279 0.26s3.476 23.63 3.476 23.63l-8.475 1.842 1.040-27.040z"></path>
</svg>
