<!-- Generated by IcoMoon.io -->
<svg version="1.1" xmlns="http://www.w3.org/2000/svg" width="45" height="32" viewBox="0 0 45 32">
<title>upwork</title>
<path fill="#004756" d="M34.833 2.928c-4.808 0-8.437 3.145-9.889 8.086-2.268-3.504-4.083-7.457-5.081-10.871h-5.081v13.207c0 2.606-2.177 4.762-4.808 4.762s-4.808-2.156-4.808-4.762v-13.117h-4.899v13.207c0 5.481 4.445 9.883 9.889 9.883s9.889-4.402 9.889-9.883v-2.246c0.998 1.977 2.268 4.133 3.629 6.020l-3.175 14.645h5.171l2.177-10.692c1.996 1.258 4.264 1.977 6.986 1.977 5.534 0 10.070-4.492 10.070-10.242 0-5.481-4.536-9.973-10.070-9.973zM34.833 18.111c-1.996 0-4.083-0.898-5.716-2.246l0.544-1.977v-0.090c0.363-2.156 1.542-5.75 5.262-5.75 2.812 0 5.081 2.246 5.081 5.031-0.091 2.785-2.54 5.031-5.171 5.031z"></path>
</svg>
