<!-- Generated by IcoMoon.io -->
<svg version="1.1" xmlns="http://www.w3.org/2000/svg" width="32" height="32" viewBox="0 0 32 32">
<title>adobexd</title>
<path d="M20.19 18.014c0 3.575 2.268 3.899 3.003 3.899s1.058-0.137 1.058-0.137v-7.449c0 0-0.211-0.175-0.834-0.175s-3.227 0.287-3.227 3.862z"></path>
<path d="M0 0v32h32v-32h-32zM13.86 24l-3.023-6.256-2.988 6.256h-2.784l4.129-8.158-3.987-7.967h2.817l2.975 6.14 2.936-6.14h2.735l-4.053 7.871 4.256 8.254h-3.013zM26.938 23.191c0 0-1.283 0.941-4.004 0.941-3.696 0-5.431-2.59-5.431-6.015 0-4.43 3.251-6.18 5.94-6.18 0.315 0 0.808 0 0.808 0v-4.063h2.688v15.316z"></path>
</svg>
