<!-- Generated by IcoMoon.io -->
<svg version="1.1" xmlns="http://www.w3.org/2000/svg" width="32" height="32" viewBox="0 0 32 32">
<title>bootsrap</title>
<path fill="#50205d" d="M28 30.667h-24c-1.473 0-2.667-1.194-2.667-2.667v-24c0-1.473 1.194-2.667 2.667-2.667h24c1.473 0 2.667 1.194 2.667 2.667v24c0 1.473-1.194 2.667-2.667 2.667z"></path>
<path fill="#fff" opacity="0.2" d="M28 1.333h-24c-1.473 0-2.667 1.194-2.667 2.667v0.333c0-1.473 1.194-2.667 2.667-2.667h24c1.473 0 2.667 1.194 2.667 2.667v-0.333c0-1.473-1.194-2.667-2.667-2.667z"></path>
<path fill="#010101" opacity="0.1" d="M28 30.333h-24c-1.473 0-2.667-1.194-2.667-2.667v0.333c0 1.473 1.194 2.667 2.667 2.667h24c1.473 0 2.667-1.194 2.667-2.667v-0.333c0 1.473-1.194 2.667-2.667 2.667z"></path>
<path fill="#000" d="M20 11.667c0-1.286-1.047-2.333-2.333-2.333h-5.667v4.667h5.667c1.286 0 2.333-1.047 2.333-2.333zM21.25 7.988c0.868 0.848 1.417 2.039 1.417 3.346 0 1.542-0.751 2.911-1.907 3.762 1.903 0.815 3.24 2.707 3.24 4.905 0 2.941-2.393 5.333-5.333 5.333h-9.333l5.333 5.333h13.333c1.473 0 2.667-1.194 2.667-2.667v-10.667l-9.417-9.346zM21.333 19.667c0-1.654-1.346-3-3-3h-6.333v6h6.333c1.654 0 3-1.346 3-3z"></path>
<path fill="#fff" d="M20.76 15.095c1.156-0.85 1.907-2.22 1.907-3.762 0-2.573-2.094-4.667-4.667-4.667h-8.667v18.667h9.333c2.941 0 5.333-2.392 5.333-5.333 0-2.198-1.337-4.090-3.24-4.905zM17.667 14h-5.667v-4.667h5.667c1.286 0 2.333 1.047 2.333 2.333s-1.047 2.333-2.333 2.333zM18.333 22.667h-6.333v-6h6.333c1.654 0 3 1.346 3 3s-1.346 3-3 3z"></path>
<path fill="#000" d="M28 30.667h-24c-1.473 0-2.667-1.194-2.667-2.667v-24c0-1.473 1.194-2.667 2.667-2.667h24c1.473 0 2.667 1.194 2.667 2.667v24c0 1.473-1.194 2.667-2.667 2.667z"></path>
</svg>
