<!-- Generated by IcoMoon.io -->
<svg version="1.1" xmlns="http://www.w3.org/2000/svg" width="32" height="32" viewBox="0 0 32 32">
<title>call</title>
<path fill="#004756" d="M32 25.273c0 0.409-0.076 0.943-0.227 1.602s-0.311 1.178-0.477 1.557c-0.318 0.758-1.242 1.561-2.773 2.409-1.424 0.773-2.833 1.159-4.227 1.159-0.409 0-0.807-0.026-1.193-0.080s-0.822-0.148-1.307-0.284c-0.485-0.136-0.845-0.246-1.080-0.33s-0.655-0.239-1.261-0.466c-0.606-0.227-0.977-0.364-1.114-0.409-1.485-0.53-2.811-1.159-3.977-1.886-1.939-1.197-3.943-2.83-6.011-4.898s-3.701-4.072-4.898-6.011c-0.727-1.167-1.356-2.492-1.886-3.977-0.045-0.136-0.182-0.508-0.409-1.114s-0.383-1.027-0.466-1.261c-0.083-0.235-0.193-0.595-0.33-1.080s-0.231-0.92-0.284-1.307c-0.053-0.386-0.080-0.784-0.080-1.193 0-1.394 0.386-2.803 1.159-4.227 0.849-1.53 1.652-2.455 2.409-2.773 0.379-0.167 0.898-0.326 1.557-0.477s1.193-0.227 1.602-0.227c0.212 0 0.371 0.023 0.477 0.068 0.273 0.091 0.674 0.667 1.205 1.727 0.167 0.288 0.394 0.697 0.682 1.227s0.553 1.011 0.795 1.443c0.242 0.432 0.477 0.837 0.705 1.216 0.045 0.061 0.178 0.25 0.398 0.568s0.383 0.587 0.489 0.807c0.106 0.22 0.159 0.436 0.159 0.648 0 0.303-0.216 0.682-0.648 1.136s-0.902 0.871-1.409 1.25c-0.508 0.379-0.977 0.78-1.409 1.205s-0.648 0.773-0.648 1.045c0 0.136 0.038 0.307 0.114 0.511s0.14 0.36 0.193 0.466c0.053 0.106 0.159 0.288 0.318 0.545s0.246 0.402 0.261 0.432c1.152 2.076 2.47 3.856 3.955 5.341s3.265 2.803 5.341 3.955c0.030 0.015 0.174 0.102 0.432 0.261s0.439 0.265 0.545 0.318c0.106 0.053 0.261 0.117 0.466 0.193s0.375 0.114 0.511 0.114c0.273 0 0.621-0.216 1.045-0.648s0.826-0.901 1.205-1.409c0.379-0.508 0.795-0.977 1.25-1.409s0.833-0.648 1.136-0.648c0.212 0 0.428 0.053 0.648 0.159s0.489 0.269 0.807 0.489c0.318 0.22 0.508 0.352 0.568 0.398 0.379 0.227 0.784 0.462 1.216 0.705s0.913 0.508 1.443 0.795 0.939 0.515 1.227 0.682c1.061 0.53 1.636 0.932 1.727 1.205 0.045 0.106 0.068 0.265 0.068 0.477z"></path>
</svg>
