<!-- Generated by IcoMoon.io -->
<svg version="1.1" xmlns="http://www.w3.org/2000/svg" width="33" height="32" viewBox="0 0 33 32">
<title>facebook</title>
<path fill="#004756" d="M16.19 32l0.014 0h-0.005l-0.009-0zM16.302 32h-0.005l0.014-0-0.009 0zM16.141 32l0.015 0h-0.009l-0.007-0zM16.354 32h-0.009l0.015-0-0.007 0zM16.094 31.999l0.010 0-0.008-0h-0.002zM16.406 31.999l-0.008 0 0.010-0h-0.002zM16.457 31.999v0zM16.034 31.999v0zM16.509 31.998l-0.008 0 0.017-0-0.009 0zM15.984 31.998l0.017 0-0.008-0-0.009-0zM16.56 31.997l-0.011 0 0.016-0-0.005 0zM15.936 31.997l0.016 0-0.011-0-0.005-0zM15.878 31.996l0.014 0-0.003-0-0.012-0zM16.612 31.996l-0.003 0 0.014-0-0.012 0zM15.827 31.994l0.019 0.001-0.008-0-0.011-0zM16.663 31.995l-0.008 0 0.019-0.001-0.012 0zM16.715 31.993l0.007-0-0.007 0zM15.779 31.993l0.007 0-0.007-0zM15.734 31.992l0.014 0-0.014-0zM16.766 31.992l-0.013 0 0.025-0.001-0.012 0zM16.817 31.99l-0.007 0 0.022-0.001-0.015 0zM15.669 31.99v0zM15.623 31.988l0.023 0.001-0.013-0-0.010-0zM16.869 31.988l-0.013 0 0.023-0.001-0.010 0zM15.577 31.986l0.022 0.001-0.017-0.001-0.005-0zM16.92 31.986l-0.017 0.001 0.022-0.001-0.005 0zM15.512 31.983l0.024 0.001-0.006-0-0.018-0.001zM16.971 31.984l-0.006 0 0.024-0.001-0.018 0.001zM15.466 31.981l0.025 0.001-0.012-0.001-0.013-0.001zM17.022 31.982l-0.012 0.001 0.025-0.001-0.013 0.001zM15.421 31.979l0.025 0.001-0.017-0.001-0.007-0zM17.073 31.979l-0.017 0.001 0.025-0.001-0.007 0zM17.125 31.977l-0.023 0.001 0.020-0.001 0.024-0.001-0.021 0.001zM15.379 31.977v0zM17.176 31.974v0zM15.31 31.973v0zM15.265 31.97l0.025 0.002-0.016-0.001-0.009-0.001zM17.227 31.971l-0.016 0.001 0.025-0.002-0.009 0.001zM15.222 31.967l0.023 0.001-0.021-0.001-0.021-0.001 0.020 0.001zM17.278 31.968l-0.021 0.001 0.043-0.003-0.021 0.001zM17.329 31.964l-0.008 0.001 0.008-0.001zM15.156 31.963v0zM15.111 31.96l0.024 0.002-0.013-0.001-0.011-0.001zM17.379 31.961l-0.013 0.001 0.024-0.002-0.011 0.001zM15.066 31.957l0.022 0.002-0.017-0.001-0.005-0zM17.43 31.957l-0.017 0.001 0.022-0.002-0.005 0zM15.006 31.952l0.019 0.001-0.005-0-0.014-0.001zM17.481 31.953l-0.005 0 0.019-0.001-0.015 0.001zM17.532 31.949l-0.009 0.001 0.019-0.002-0.010 0.001zM14.959 31.948l0.019 0.002-0.009-0.001-0.010-0.001zM14.914 31.945l0.017 0.001-0.012-0.001-0.005-0zM17.582 31.945l-0.012 0.001 0.017-0.001-0.005 0zM14.864 31.941l0.005 0-0.001-0-0.004-0zM17.633 31.941l-0.001 0 0.005-0-0.004 0zM17.684 31.937l-0.005 0 0.011-0.001-0.007 0.001zM14.811 31.936l0.011 0.001-0.005-0-0.007-0.001zM14.764 31.932l0.008 0.001-0.005-0.001-0.003-0zM17.734 31.932l-0.005 0.001 0.008-0.001-0.003 0zM13.751 31.805c-7.645-1.202-13.5-7.825-13.5-15.805 0-8.831 7.169-16 16-16s16 7.169 16 16c0 7.98-5.855 14.604-13.5 15.805v-11.18h3.728l0.709-4.625h-4.438v-3.001c0-1.265 0.62-2.499 2.607-2.499h2.018v-3.937c0 0-1.831-0.313-3.582-0.313-3.655 0-6.043 2.215-6.043 6.225v3.525h-4.063v4.625h4.063v11.18z"></path>
</svg>
