<!-- Generated by IcoMoon.io -->
<svg version="1.1" xmlns="http://www.w3.org/2000/svg" width="32" height="32" viewBox="0 0 32 32">
<title>git1</title>
<path fill="#f05033" d="M2.832 13.799c0 1.624 1.040 3.85 2.663 4.396v0.064c-1.207 0.533-1.54 3.247 0.064 4.223v0.064c-1.752 0.578-2.907 1.688-2.907 3.607 0 3.305 3.132 4.223 5.872 4.223 3.337 0 5.821-1.2 5.821-4.877 0-4.524-6.482-2.856-6.482-5.314 0-0.866 0.462-1.2 1.264-1.367 2.663-0.494 4.332-2.567 4.332-5.275 0-0.468-0.096-0.911-0.257-1.348 0.43-0.096 0.847-0.212 1.264-0.353v-3.241c-1.104 0.436-2.291 0.757-3.498 0.757-3.453-1.989-8.137 0.083-8.137 4.441v0zM8.46 24.311c1.091 0 2.644 0.192 2.644 1.604 0 1.399-1.251 1.688-2.419 1.688-1.11 0-2.779-0.173-2.779-1.617 0.006-1.431 1.418-1.675 2.554-1.675v0zM8.254 16c-1.412 0-2.009-0.834-2.009-2.169 0-3.164 3.915-3.132 3.915-0.032 0 1.303-0.513 2.201-1.906 2.201zM29.348 19.177v3.145c-0.854 0.468-1.957 0.629-2.92 0.629-3.433 0-3.837-2.708-3.837-5.5v-5.628h0.032v-0.064c-0.449 0-0.468-0.103-1.54 0.064v-3.048h1.54c0-1.431 0.019-1.989-0.096-2.644h3.639c-0.128 0.886-0.096 1.765-0.096 2.644h3.273v3.048c0 0-1.239-0.064-3.273-0.064v5.846c0 0.95 0.212 2.105 1.399 2.105 0.629 0 1.367-0.18 1.88-0.533zM19.979 3.98c0 1.2-0.93 2.323-2.169 2.323-1.271 0-2.214-1.104-2.214-2.323 0-1.239 0.93-2.355 2.214-2.355 1.271 0 2.169 1.155 2.169 2.355zM19.581 8.761c-0.116 0.937-0.103 12.822 0 13.977h-3.562c0.103-1.162 0.116-13.027 0-13.977h3.562z"></path>
</svg>
