<!-- Generated by IcoMoon.io -->
<svg version="1.1" xmlns="http://www.w3.org/2000/svg" width="33" height="32" viewBox="0 0 33 32">
<title>github</title>
<path fill="#f8f8f8" d="M16.515 0c-9.12 0-16.515 7.345-16.515 16.405 0 7.247 4.731 13.396 11.296 15.566 0.826 0.15 1.086-0.336 1.086-0.771 0-0.39 0.008-1.479 0-2.848-4.594 0.992-5.546-2.161-5.546-2.161-0.751-1.895-1.833-2.4-1.833-2.4-1.499-1.017 0.113-0.998 0.113-0.998 1.657 0.116 2.531 1.691 2.531 1.691 1.473 2.505 3.865 1.781 4.805 1.363 0.151-1.060 0.578-1.783 1.050-2.194-3.667-0.414-7.523-1.821-7.523-8.108 0-1.792 0.643-3.255 1.699-4.402-0.17-0.414-0.738-2.083 0.162-4.342 0 0 1.387-0.441 4.541 1.683 1.317-0.364 2.731-0.546 4.135-0.552 1.403 0.006 2.816 0.188 4.135 0.552 3.154-2.123 4.539-1.683 4.539-1.683 0.9 2.259 0.334 3.928 0.164 4.342 1.056 1.147 1.697 2.61 1.697 4.402 0 6.303-3.862 7.689-7.541 8.094 0.593 0.508 1.131 1.492 1.131 3.022 0 2.051 0 4.002 0 4.541 0 0.439 0.266 0.924 1.105 0.765 6.559-2.173 11.285-8.319 11.285-15.564 0-9.060-7.395-16.405-16.517-16.405z"></path>
</svg>
