<!-- Generated by IcoMoon.io -->
<svg version="1.1" xmlns="http://www.w3.org/2000/svg" width="32" height="32" viewBox="0 0 32 32">
<title>instagram</title>
<path fill="#004756" d="M26.353 7.465c0 1.041-0.844 1.885-1.886 1.885s-1.886-0.844-1.886-1.886c0-1.041 0.844-1.886 1.886-1.886s1.886 0.844 1.886 1.886zM16.080 21.090c-2.893 0-5.237-2.345-5.237-5.237s2.345-5.237 5.237-5.237c2.893 0 5.238 2.345 5.238 5.237s-2.345 5.237-5.238 5.237zM16.080 7.784c-4.456 0-8.069 3.612-8.069 8.069s3.612 8.069 8.069 8.069c4.456 0 8.069-3.612 8.069-8.069s-3.612-8.069-8.069-8.069zM16.080 2.971c4.196 0 4.692 0.016 6.349 0.092 1.532 0.070 2.364 0.326 2.918 0.541 0.733 0.285 1.257 0.626 1.807 1.176s0.89 1.073 1.176 1.807c0.215 0.554 0.471 1.386 0.541 2.918 0.076 1.657 0.092 2.154 0.092 6.349s-0.016 4.692-0.092 6.349c-0.070 1.532-0.326 2.364-0.541 2.918-0.285 0.733-0.626 1.257-1.176 1.807s-1.073 0.89-1.807 1.175c-0.554 0.215-1.386 0.471-2.918 0.541-1.657 0.076-2.154 0.092-6.349 0.092s-4.693-0.016-6.349-0.092c-1.532-0.070-2.364-0.326-2.918-0.541-0.733-0.285-1.257-0.626-1.807-1.175s-0.89-1.073-1.175-1.807c-0.215-0.554-0.471-1.386-0.541-2.918-0.076-1.657-0.092-2.154-0.092-6.349s0.016-4.692 0.092-6.349c0.070-1.532 0.326-2.364 0.541-2.918 0.285-0.733 0.626-1.257 1.175-1.807s1.073-0.89 1.807-1.175c0.554-0.215 1.386-0.471 2.918-0.541 1.657-0.076 2.154-0.092 6.349-0.092zM16.080 0.14c-4.267 0-4.802 0.018-6.478 0.095-1.672 0.076-2.815 0.342-3.814 0.73-1.033 0.401-1.91 0.939-2.783 1.812s-1.411 1.75-1.812 2.783c-0.388 0.999-0.654 2.142-0.73 3.814-0.076 1.676-0.095 2.211-0.095 6.478s0.018 4.802 0.095 6.478c0.076 1.672 0.342 2.815 0.73 3.814 0.401 1.033 0.939 1.91 1.812 2.783s1.75 1.411 2.783 1.812c0.999 0.388 2.142 0.654 3.814 0.73 1.676 0.076 2.211 0.095 6.478 0.095s4.802-0.018 6.478-0.095c1.672-0.076 2.815-0.342 3.814-0.73 1.033-0.402 1.91-0.939 2.783-1.812s1.411-1.75 1.812-2.783c0.388-0.999 0.654-2.142 0.73-3.814 0.076-1.676 0.095-2.211 0.095-6.478s-0.018-4.802-0.095-6.478c-0.076-1.672-0.342-2.815-0.73-3.814-0.402-1.033-0.939-1.91-1.812-2.783s-1.75-1.411-2.783-1.812c-0.999-0.388-2.142-0.654-3.814-0.73-1.676-0.076-2.211-0.095-6.478-0.095z"></path>
</svg>
