<!-- Generated by IcoMoon.io -->
<svg version="1.1" xmlns="http://www.w3.org/2000/svg" width="32" height="32" viewBox="0 0 32 32">
<title>photoshop</title>
<path d="M0.563 31.375h30.625v-30.625h-30.625v30.625zM21.134 18.671c-2.369-0.798-3.341-2.095-3.341-3.541 0-2.145 1.77-3.79 4.588-3.79 1.346 0 2.518 0.324 3.241 0.723l-0.623 2.144c-0.499-0.299-1.496-0.698-2.568-0.698-1.097 0-1.696 0.549-1.696 1.297 0 0.773 0.573 1.122 2.119 1.696 2.219 0.773 3.217 1.895 3.241 3.69 0 2.219-1.721 3.69-4.937 3.69-1.471 0-2.793-0.349-3.69-0.848l0.623-2.244c0.673 0.424 1.995 0.898 3.092 0.898 1.346 0 1.945-0.448 1.945-1.246 0-0.823-0.499-1.222-1.995-1.77zM5.239 7.363c1.122-0.2 2.643-0.349 4.688-0.349 2.244 0 3.865 0.474 4.937 1.371 0.997 0.823 1.646 2.144 1.646 3.715 0 1.596-0.499 2.892-1.421 3.79-1.247 1.222-3.142 1.82-5.311 1.82-0.573 0-1.072-0.025-1.496-0.125v6.296h-3.042v-16.519z"></path>
<path d="M13.467 12.226c0-1.87-1.297-2.843-3.416-2.843-0.848 0-1.446 0.075-1.77 0.15v5.635c0.399 0.125 0.873 0.15 1.496 0.15 2.294-0 3.69-1.147 3.69-3.092z"></path>
</svg>
