<!-- Generated by IcoMoon.io -->
<svg version="1.1" xmlns="http://www.w3.org/2000/svg" width="32" height="32" viewBox="0 0 32 32">
<title>tick</title>
<path fill="#00d0fe" d="M13.635 22.917c-0.19 0-0.375-0.068-0.521-0.193l-4.729-4.053c-0.335-0.288-0.374-0.793-0.087-1.128s0.793-0.374 1.128-0.087l4.091 3.507 8.943-11.498c0.272-0.349 0.774-0.412 1.123-0.14s0.411 0.774 0.14 1.123l-9.458 12.16c-0.134 0.173-0.333 0.283-0.551 0.305-0.026 0.003-0.053 0.004-0.080 0.004zM32 16c0-8.822-7.178-16-16-16s-16 7.178-16 16c0 8.822 7.178 16 16 16s16-7.178 16-16zM30.4 16c0 7.94-6.46 14.4-14.4 14.4s-14.4-6.46-14.4-14.4c0-7.94 6.46-14.4 14.4-14.4s14.4 6.46 14.4 14.4z"></path>
</svg>
