<!-- Generated by IcoMoon.io -->
<svg version="1.1" xmlns="http://www.w3.org/2000/svg" width="32" height="32" viewBox="0 0 32 32">
<title>whatsapp</title>
<path fill="#004756" d="M15.961 0h-0.008c-8.798 0-15.953 7.176-15.953 16 0 3.5 1.125 6.744 3.038 9.378l-1.988 5.943 6.134-1.966c2.523 1.676 5.533 2.644 8.778 2.644 8.798 0 15.953-7.178 15.953-16s-7.155-16-15.953-16z"></path>
<path fill="#e8e8ea" d="M25.246 22.594c-0.385 1.090-1.913 1.994-3.131 2.258-0.834 0.178-1.923 0.32-5.589-1.204-4.69-1.948-7.709-6.726-7.944-7.036-0.226-0.31-1.895-2.53-1.895-4.826s1.163-3.414 1.632-3.894c0.385-0.394 1.021-0.574 1.631-0.574 0.198 0 0.375 0.010 0.535 0.018 0.469 0.020 0.704 0.048 1.013 0.79 0.385 0.93 1.322 3.226 1.434 3.462 0.114 0.236 0.227 0.556 0.068 0.866-0.15 0.32-0.281 0.462-0.517 0.734s-0.459 0.48-0.694 0.772c-0.215 0.254-0.459 0.526-0.187 0.996 0.271 0.46 1.208 1.994 2.589 3.226 1.782 1.59 3.225 2.098 3.742 2.314 0.385 0.16 0.844 0.122 1.125-0.178 0.357-0.386 0.798-1.026 1.247-1.656 0.319-0.452 0.722-0.508 1.145-0.348 0.431 0.15 2.711 1.28 3.179 1.514 0.468 0.236 0.778 0.348 0.892 0.546 0.112 0.198 0.112 1.128-0.273 2.22z"></path>
</svg>
