<!-- Generated by IcoMoon.io -->
<svg version="1.1" xmlns="http://www.w3.org/2000/svg" width="32" height="32" viewBox="0 0 32 32">
<title>wordpress</title>
<path d="M2.026 16.569c0 5.499 3.196 10.256 7.833 12.506l-6.629-18.163c-0.772 1.729-1.204 3.641-1.204 5.657zM25.307 15.867c0-1.718-0.619-2.908-1.146-3.833-0.704-1.146-1.364-2.114-1.364-3.26 0-1.278 0.966-2.466 2.334-2.466 0.059 0 0.119 0.008 0.178 0.012-2.472-2.265-5.766-3.65-9.384-3.65-4.857 0-9.128 2.493-11.612 6.265 0.327 0.010 0.633 0.018 0.893 0.018 1.455 0 3.704-0.178 3.704-0.178 0.747-0.042 0.836 1.056 0.087 1.146 0 0-0.752 0.087-1.59 0.132l5.062 15.053 3.042-9.12-2.166-5.932c-0.748-0.045-1.457-0.132-1.457-0.132-0.75-0.045-0.66-1.188 0.089-1.146 0 0 2.294 0.178 3.659 0.178 1.453 0 3.706-0.178 3.706-0.178 0.746-0.042 0.835 1.056 0.086 1.146 0 0-0.751 0.087-1.589 0.132l5.024 14.938 1.387-4.63c0.704-1.807 1.058-3.303 1.058-4.494zM16.169 17.786l-4.171 12.118c1.245 0.366 2.56 0.564 3.927 0.564 1.617 0 3.17-0.28 4.615-0.789-0.037-0.059-0.072-0.121-0.099-0.19l-4.272-11.704zM28.119 9.9c0.062 0.444 0.096 0.918 0.096 1.431 0 1.409-0.265 2.994-1.058 4.978l-4.245 12.272c4.131-2.408 6.909-6.883 6.909-12.011 0.001-2.418-0.617-4.689-1.702-6.67z"></path>
</svg>
